# xmcd
#
# Track frame offsets: 
#        150
#        49396
#        67446
#        111051
#        144233
#        181934
#        198132
#        215884
#        223287
#        253050
#        282209
#        291305
#        305615
#        325797
#
# Disc length: 4717 seconds
#
# Revision: 1
# Processed by: cddbd v1.5.2PL0 Copyright (c) Steve Scherf et al.
# Submitted via: ExactAudioCopyFreeDBPlugin 1.0
#
DISCID=ee126b0e
DTITLE=Lucky Peterson - Live In Marciac - July 28th 2014
DYEAR=2014
DGENRE=Blues
TTITLE0=Boogie Thang (Live)
TTITLE1=Funky Broadway (Live)
TTITLE2=I Can See Clearly Now (Live)
TTITLE3=It Ain't Safe (Live)
TTITLE4=Trouble (Live)
TTITLE5=Lock Out Of Love (Live)
TTITLE6=Make My Move On You (Live)
TTITLE7=Tribute To Stevie Ray Vaughan (Live)
TTITLE8=Nana Jarnell (Live)
TTITLE9=I'm Still Here (Live)
TTITLE10=Goin' Down Slow (I've Had My Fun) (Live)
TTITLE11=Jody's Got Your Girl And Gone (Live)
TTITLE12=Boogie Woogie Blues Party (Live)
TTITLE13=Johnny B. Goode - "Encore" with Joe Satriani (Live)
EXTD=YEAR: 2014
EXTT0=
EXTT1=
EXTT2=
EXTT3=
EXTT4=
EXTT5=
EXTT6=
EXTT7=
EXTT8=
EXTT9=
EXTT10=
EXTT11=
EXTT12=
EXTT13=
PLAYORDER=
